<svg xmlns="http://www.w3.org/2000/svg" viewBox="0 0 50 50">
  <defs/>
  <path fill="#111" d="M0 0h50v50H0z"/>
  <g fill="#eee" stroke-width=".1" aria-label="DK" style="font-variant-caps:normal;font-variant-east-asian:normal;font-variant-ligatures:normal;font-variant-numeric:normal">
    <path d="M22.743 22.8q.22.88.22 2.2 0 1.265-.22 2.2.22.88.22 2.2 0 1.265-.22 2.2h-2.2q.22.88.22 2.2 0 1.265-.22 2.2h-2.2q.22.88.22 2.2 0 1.265-.22 2.2h-13.2q-.22-.935-.22-2.2 0-1.32.22-2.2-.22-.935-.22-2.2 0-1.32.22-2.2-.22-.935-.22-2.2 0-1.32.22-2.2-.22-.935-.22-2.2 0-1.32.22-2.2-.22-.935-.22-2.2 0-1.32.22-2.2-.22-.935-.22-2.2 0-1.32.22-2.2-.22-.935-.22-2.2 0-1.32.22-2.2h13.2q.22.88.22 2.2 0 1.265-.22 2.2h2.2q.22.88.22 2.2 0 1.265-.22 2.2h2.2q.22.88.22 2.2 0 1.265-.22 2.2zm-4.4 8.8q-.22-.935-.22-2.2 0-1.32.22-2.2-.22-.935-.22-2.2 0-1.32.22-2.2-.22-.935-.22-2.2 0-1.32.22-2.2h-2.2q-.22-.935-.22-2.2 0-1.32.22-2.2h-6.6q.22.88.22 2.2 0 1.265-.22 2.2.22.88.22 2.2 0 1.265-.22 2.2.22.88.22 2.2 0 1.265-.22 2.2.22.88.22 2.2 0 1.265-.22 2.2.22.88.22 2.2 0 1.265-.22 2.2h6.6q-.22-.935-.22-2.2 0-1.32.22-2.2zM44.765 36q.22.88.22 2.2 0 1.265-.22 2.2h-4.4q-.22-.935-.22-2.2 0-1.32.22-2.2h-1.65q-.22-.935-.22-2.2 0-1.32.22-2.2h-3.3q-.22-.935-.22-2.2 0-1.32.22-2.2h-3.85q.22.88.22 2.2 0 1.265-.22 2.2.22.88.22 2.2 0 1.265-.22 2.2.22.88.22 2.2 0 1.265-.22 2.2h-4.4q-.22-.935-.22-2.2 0-1.32.22-2.2-.22-.935-.22-2.2 0-1.32.22-2.2-.22-.935-.22-2.2 0-1.32.22-2.2-.22-.935-.22-2.2 0-1.32.22-2.2-.22-.935-.22-2.2 0-1.32.22-2.2-.22-.935-.22-2.2 0-1.32.22-2.2-.22-.935-.22-2.2 0-1.32.22-2.2h4.4q.22.88.22 2.2 0 1.265-.22 2.2.22.88.22 2.2 0 1.265-.22 2.2.22.88.22 2.2 0 1.265-.22 2.2h3.85q-.22-.935-.22-2.2 0-1.32.22-2.2h3.3q-.22-.935-.22-2.2 0-1.32.22-2.2h1.65q-.22-.935-.22-2.2 0-1.32.22-2.2h4.4q.22.88.22 2.2 0 1.265-.22 2.2h-1.65q.22.88.22 2.2 0 1.265-.22 2.2h-3.3q.22.88.22 2.2 0 1.265-.22 2.2h-2.75q.22.88.22 2.2 0 1.265-.22 2.2h2.75q.22.88.22 2.2 0 1.265-.22 2.2h3.3q.22.88.22 2.2 0 1.265-.22 2.2z" style="font-variant-caps:normal;font-variant-east-asian:normal;font-variant-ligatures:normal;font-variant-numeric:normal"/>
  </g>
</svg>
