<?xml version="1.0" standalone="no"?>
<!DOCTYPE svg PUBLIC "-//W3C//DTD SVG 20010904//EN"
 "http://www.w3.org/TR/2001/REC-SVG-20010904/DTD/svg10.dtd">
<svg version="1.0" xmlns="http://www.w3.org/2000/svg"
 width="512.000000pt" height="512.000000pt" viewBox="0 0 512.000000 512.000000"
 preserveAspectRatio="xMidYMid meet">
<metadata>
Created by potrace 1.14, written by Peter Selinger 2001-2017
</metadata>
<g transform="translate(0.000000,512.000000) scale(0.100000,-0.100000)"
fill="#000000" stroke="none">
<path d="M0 2560 l0 -2560 2560 0 2560 0 0 2560 0 2560 -2560 0 -2560 0 0
-2560z m1947 1413 c9 -49 10 -264 1 -325 l-8 -47 102 -3 102 -3 8 -30 c12 -40
15 -244 5 -322 l-8 -63 105 0 105 0 5 -52 c9 -80 2 -1171 -7 -1185 -6 -9 -39
-13 -107 -13 l-100 0 8 -62 c9 -83 9 -219 -1 -290 l-8 -58 -105 0 -104 0 7
-57 c10 -76 10 -256 0 -315 l-8 -48 -624 0 -624 0 -8 37 c-4 21 -7 94 -7 163
1 69 1 168 1 220 0 52 0 149 0 215 0 66 0 161 0 210 0 50 0 141 0 203 0 61 0
153 0 202 0 50 0 145 0 213 0 67 0 163 0 212 0 50 0 143 0 208 0 64 0 155 0
202 0 47 0 140 0 208 0 67 0 163 0 212 -2 294 -1 353 6 378 l7 27 625 0 624 0
8 -37z m1249 -10 c4 -27 8 -91 7 -143 0 -52 0 -149 0 -215 -2 -247 -1 -527 1
-630 0 -44 -3 -110 -7 -147 l-8 -68 181 0 180 0 -8 48 c-9 62 -9 309 1 345 l7
27 155 0 155 0 -7 58 c-10 74 -10 253 0 315 l8 47 79 0 79 0 -7 38 c-9 50 -9
310 1 345 l7 27 209 0 208 0 7 -37 c3 -21 6 -96 6 -168 0 -71 -3 -147 -6 -167
l-7 -38 -78 0 -79 0 7 -57 c10 -76 10 -256 0 -315 l-8 -48 -155 0 -155 0 8
-52 c10 -68 7 -294 -5 -333 l-8 -30 -127 -3 -127 -3 8 -62 c9 -81 9 -206 -1
-284 l-8 -63 130 0 130 0 8 -57 c10 -73 10 -208 0 -295 l-8 -68 155 0 155 0 8
-37 c9 -49 10 -264 1 -325 l-8 -47 78 -3 c76 -3 77 -3 83 -33 9 -40 11 -281 3
-339 l-7 -46 -208 0 -209 0 -7 28 c-10 34 -10 316 -1 360 l8 32 -80 0 -79 0
-8 48 c-10 61 -10 231 0 305 l7 57 -154 0 -155 0 -8 38 c-10 48 -10 273 -1
335 l8 47 -181 0 -180 0 8 -62 c4 -35 7 -100 7 -145 -2 -75 -2 -166 -2 -415 0
-46 0 -139 0 -208 0 -69 1 -165 2 -215 0 -49 -3 -116 -7 -147 l-8 -58 -209 0
-209 0 -8 37 c-4 21 -7 94 -7 163 1 69 1 168 1 220 0 52 0 149 0 215 0 66 0
161 0 210 0 50 0 141 0 203 0 61 0 153 0 202 0 50 0 145 0 213 0 67 0 163 0
212 0 50 0 143 0 208 0 64 0 155 0 202 0 47 0 140 0 208 0 67 0 163 0 212 -2
294 -1 353 6 378 l7 27 210 0 209 0 7 -47z"/>
<path d="M1117 3538 c4 -35 7 -103 6 -153 0 -49 -1 -144 -1 -210 0 -66 0 -157
0 -202 0 -46 0 -139 0 -208 0 -69 0 -163 0 -210 0 -47 0 -139 0 -205 0 -66 0
-158 0 -205 0 -47 0 -141 0 -210 0 -69 1 -162 2 -207 0 -46 -2 -111 -6 -145
l-8 -63 310 0 310 0 -8 33 c-9 43 -9 315 1 350 l7 27 105 0 104 0 -7 38 c-4
20 -7 98 -6 172 1 145 1 200 1 423 0 181 0 252 -1 412 -1 72 2 147 6 168 l7
37 -104 0 -104 0 -8 38 c-10 47 -10 271 -1 335 l8 47 -311 0 -310 0 8 -62z"/>
</g>
</svg>
